#!OML:ASF F:\VICON\USERDATA\INSTALL\rory3\rory3.ASF
:FULLY-SPECIFIED
:DEGREES
83
root 0.380609 17.723 12.578 4.32893 2.68744 4.99603
lowerback 17.6132 -1.82735 -7.40444
upperback 1.95576 -4.03551 -2.59015
thorax -7.43867 -1.76049 2.34221
lowerneck -5.13264 0.279596 -2.20329
upperneck -11.9755 0.771284 4.02977
head -2.98428 0.361551 1.68233
rclavicle 2.08724e-014 3.89618e-014
rhumerus -52.7049 2.40997 -83.9638
rradius 70.7442
rwrist -2.0476
rhand -37.4167 31.1083
rfingers 7.12502
rthumb -10.4766 1.38933
lclavicle 2.08724e-014 3.89618e-014
lhumerus -17.9466 -13.1479 86.4895
lradius 112.956
lwrist 24.6209
lhand -33.6492 11.5862
lfingers 7.12502
lthumb -6.84098 41.4556
rfemur -41.6768 -7.18658 14.7465
rtibia 110.646
rfoot 15.83 -1.67625
rtoes 8.483
lfemur 2.37482 -1.20545 -29.5088
ltibia 27.7152
lfoot -10.2409 -2.61731
ltoes -28.6344
84
root 0.369432 17.8294 13.1198 4.42694 2.88396 4.85498
lowerback 17.6098 -2.18968 -7.41301
upperback 1.83455 -4.50689 -2.41314
thorax -7.51107 -1.97923 2.6446
lowerneck -5.62809 0.412434 -1.93579
upperneck -11.4878 0.904723 3.70364
head -2.72785 0.431758 1.51971
rclavicle 1.68967e-014 1.03368e-014
rhumerus -53.5235 2.52272 -83.6251
rradius 70.4964
rwrist -2.11933
rhand -37.1606 30.7053
rfingers 7.12502
rthumb -10.2296 0.973999
lclavicle 1.68967e-014 1.03368e-014
lhumerus -17.3519 -12.726 86.3862
lradius 113.568
lwrist 24.6394
lhand -33.7992 11.632
lfingers 7.12502
lthumb -6.98571 41.4967
rfemur -43.0767 -6.38194 15.234
rtibia 107.641
rfoot 15.4946 -0.686656
rtoes 4.85398
lfemur 4.70624 -1.53379 -29.1737
ltibia 25.9197
lfoot -7.22348 -2.90022
ltoes -30.4083
85
root 0.350802 17.9189 13.6619 4.59848 3.21758 4.58411
lowerback 17.5485 -2.60034 -7.38211
upperback 1.57581 -5.02803 -2.10698
thorax -7.68436 -2.21379 3.07528
lowerneck -5.50298 0.561735 -1.87459
upperneck -11.3507 1.07439 3.43797
head -2.70517 0.518871 1.41973
rclavicle 2.10712e-014 1.82882e-014
rhumerus -54.6048 2.70404 -83.177
rradius 70.3005
rwrist -2.08633
rhand -36.8474 30.883
rfingers 7.12502
rthumb -9.92746 1.13708
lclavicle 2.10712e-014 1.82882e-014
lhumerus -17.3138 -12.0881 86.4573
lradius 114.186
lwrist 24.7428
lhand -33.8771 11.4156
lfingers 7.12502
lthumb -7.06091 41.2778
rfemur -44.4131 -5.63444 15.8653
rtibia 104.447
rfoot 15.0261 0.0466853
rtoes 4.14622
lfemur 6.87401 -2.1395 -28.6947
ltibia 24.1817
lfoot -3.968 -3.20455
ltoes -31.686
86
root 0.329217 18.0092 14.211 4.94806 3.2918 4.23475
lowerback 17.1629 -2.89216 -7.31235
upperback 1.24993 -5.35931 -1.78223
thorax -7.7677 -2.36132 3.44236
lowerneck -5.16507 0.626947 -1.72059
upperneck -11.3162 1.11218 2.96441
head -2.74699 0.53975 1.23788
rclavicle 3.49861e-014 2.06736e-014
rhumerus -55.7365 2.83334 -82.6286
rradius 70.0459
rwrist -1.9667
rhand -36.8657 31.6188
rfingers 7.12502
rthumb -9.94503 1.87375
lclavicle 3.49861e-014 2.06736e-014
lhumerus -17.4419 -11.5873 86.6324
lradius 114.772
lwrist 25.409
lhand -33.923 10.5812
lfingers 7.12502
lthumb -7.10522 40.4419
rfemur -45.8582 -4.58266 16.5323
rtibia 100.93
rfoot 14.4513 0.245959
rtoes 4.57613
lfemur 8.91962 -2.62438 -28.1655
ltibia 22.0879
lfoot -0.00891852 -3.41533
ltoes -31.9046
87
root 0.32129 18.1122 14.7694 5.16849 3.21501 3.91482
lowerback 16.9599 -3.12169 -7.0299
upperback 0.913182 -5.59442 -1.55083
thorax -8.00086 -2.46369 3.58342
lowerneck -4.90092 0.706766 -1.69522
upperneck -11.1469 1.18998 2.705
head -2.73513 0.582255 1.14729
rclavicle 8.94531e-015 1.98785e-014
rhumerus -56.9 2.86574 -82.0423
rradius 69.9021
rwrist -1.8319
rhand -36.6987 30.9712
rfingers 7.12502
rthumb -9.78395 1.21848
lclavicle 8.94531e-015 1.98785e-014
lhumerus -17.6063 -11.5595 86.7188
lradius 115.38
lwrist 25.6023
lhand -34.31 10.0905
lfingers 7.12502
lthumb -7.47882 39.9383
rfemur -46.8072 -3.547 16.9387
rtibia 97.01
rfoot 13.8723 0.564142
rtoes 2.85703
lfemur 11.2372 -3.11514 -27.7829
ltibia 19.7332
lfoot 5.25271 -3.29088
ltoes -28.0506
88
root 0.328386 18.2227 15.343 5.15091 3.21946 3.72667
lowerback 16.9187 -3.36566 -6.67228
upperback 0.649196 -5.84909 -1.39063
thorax -8.25777 -2.57987 3.62066
lowerneck -4.71902 0.795857 -1.81357
upperneck -10.9144 1.29449 2.57432
head -2.69121 0.641375 1.12297
rclavicle -5.78463e-014 -2.3059e-014
rhumerus -58.1096 2.87349 -81.4564
rradius 69.8923
rwrist -1.8132
rhand -36.5409 29.7014
rfingers 7.12502
rthumb -9.63171 -0.0583683
lclavicle -5.78463e-014 -2.3059e-014
lhumerus -17.9231 -11.839 86.8817
lradius 115.908
lwrist 24.7292
lhand -34.6162 9.65435
lfingers 7.12502
lthumb -7.77435 39.4914
rfemur -47.0389 -2.81835 17.0199
rtibia 92.7899
rfoot 13.5374 1.14721
rtoes 0.764173
lfemur 13.8547 -3.65261 -27.6218
ltibia 17.1755
lfoot 10.9765 -2.33787
ltoes -21.9928
89
root 0.326395 18.3121 15.9129 5.22907 2.92107 3.44351
lowerback 16.6633 -3.48135 -6.47552
upperback 0.497765 -5.93636 -1.18744
thorax -8.26887 -2.62354 3.73435
lowerneck -4.93105 0.926019 -1.67185
upperneck -10.5913 1.43918 2.28471
head -2.5431 0.716853 1.0023
rclavicle -6.71892e-014 -2.46493e-014
rhumerus -59.0294 2.8452 -80.9717
rradius 69.7218
rwrist -2.13104
rhand -36.296 29.9641
rfingers 7.12502
rthumb -9.39543 0.193519
lclavicle -6.71892e-014 -2.46493e-014
lhumerus -18.2607 -11.6529 86.9803
lradius 116.573
lwrist 25.3478
lhand -33.9886 8.86043
lfingers 7.12502
lthumb -7.16853 38.719
rfemur -47.3101 -1.67539 17.1894
rtibia 88.4717
rfoot 13.3434 1.40237
rtoes 0.623869
lfemur 16.3957 -3.89855 -27.3832
ltibia 14.0003
lfoot 15.7208 -0.244325
ltoes -21.2806
90
root 0.319052 18.3918 16.4829 5.38819 2.34757 2.88958
lowerback 16.2589 -3.47745 -6.20157
upperback 0.382953 -5.8308 -0.890895
thorax -8.173 -2.5821 3.8497
lowerneck -5.13632 0.997388 -1.29896
upperneck -10.3736 1.48488 1.78959
head -2.42453 0.738243 0.778987
rclavicle -6.57977e-014 -2.3059e-014
rhumerus -59.7341 2.77818 -80.4399
rradius 69.4375
rwrist -2.80757
rhand -35.7862 31.2778
rfingers 7.12502
rthumb -8.90354 1.48568
lclavicle -6.57977e-014 -2.3059e-014
lhumerus -18.514 -11.5168 87.0422
lradius 117.217
lwrist 26.1839
lhand -33.6422 8.56064
lfingers 7.12502
lthumb -6.83414 38.4303
rfemur -47.6085 -0.28198 17.6587
rtibia 83.9876
rfoot 13.0848 1.55265
rtoes 0.177937
lfemur 19.1518 -3.87012 -26.856
ltibia 10.1254
lfoot 20.9576 2.18818
ltoes -21.3428
91
root 0.324361 18.4579 17.0598 5.38006 1.84733 2.85867
lowerback 15.9212 -3.48283 -6.22389
upperback 0.306075 -5.81235 -0.776396
thorax -8.05512 -2.57565 3.95609
lowerneck -5.11917 1.06395 -1.21961
upperneck -10.3277 1.55252 1.55565
head -2.40961 0.773774 0.690277
rclavicle -2.62396e-014 2.46493e-014
rhumerus -60.544 2.74935 -79.865
rradius 69.5133
rwrist -3.25878
rhand -35.5035 30.7196
rfingers 7.12502
rthumb -8.63066 0.916004
lclavicle -2.62396e-014 2.46493e-014
lhumerus -18.7952 -12.1929 87.2401
lradius 117.528
lwrist 24.0798
lhand -34.6989 9.71004
lfingers 7.12502
lthumb -7.85413 39.5441
rfemur -47.6073 0.722411 17.3877
rtibia 79.455
rfoot 12.9884 2.01423
rtoes 0.0840015
lfemur 22.8825 -3.91833 -26.9563
ltibia 5.53696
lfoot 27.8013 5.09959
ltoes -15.6269
92
root 0.327072 18.5118 17.6254 5.39891 1.3318 3.03442
lowerback 15.716 -3.42015 -6.45832
upperback 0.122698 -5.76373 -0.727865
thorax -8.11782 -2.53631 4.12008
lowerneck -5.09814 1.20577 -1.07453
upperneck -9.95603 1.71891 1.33509
head -2.28789 0.857045 0.594163
rclavicle 1.2921e-014 2.78299e-015
rhumerus -61.5479 2.65777 -79.2724
rradius 69.7931
rwrist -3.35096
rhand -36.7695 27.6654
rfingers 7.12502
rthumb -9.85228 -2.08406
lclavicle 1.2921e-014 2.78299e-015
lhumerus -19.3475 -12.9052 87.4215
lradius 117.718
lwrist 22.1215
lhand -35.1516 9.11783
lfingers 7.12502
lthumb -8.29104 38.9351
rfemur -47.5734 1.73846 16.8546
rtibia 74.787
rfoot 12.8502 2.23656
rtoes -0.434524
lfemur 27.2415 -3.98502 -27.2306
ltibia 1.90833e-014
lfoot 33.8783 8.44666
ltoes -9.40428
93
root 0.326241 18.5771 18.1848 5.71614 0.953788 3.00176
lowerback 15.271 -3.44046 -6.45234
upperback -0.116435 -5.75879 -0.595884
thorax -8.11569 -2.52852 4.23141
lowerneck -5.01005 1.32868 -0.906816
upperneck -9.6765 1.85484 1.03343
head -2.20664 0.925522 0.469383
rclavicle -6.36111e-014 -1.03368e-014
rhumerus -62.3009 2.60602 -78.7039
rradius 69.9632
rwrist -3.46471
rhand -40.4892 19.1603
rfingers 7.12502
rthumb -13.4393 -10.3862
lclavicle -6.36111e-014 -1.03368e-014
lhumerus -19.9786 -13.2702 87.5493
lradius 118.042
lwrist 21.683
lhand -34.8199 6.65467
lfingers 7.12502
lthumb -7.9709 36.4844
rfemur -47.5788 2.69398 16.536
rtibia 69.8878
rfoot 12.4236 2.22173
rtoes 0.102293
lfemur 28.4481 -4.14198 -27.4357
ltibia -9.54166e-015
lfoot 35.0632 9.25778
ltoes -8.12792
